<svg xmlns="http://www.w3.org/2000/svg" xmlns:xlink="http://www.w3.org/1999/xlink" width="28" height="20" viewBox="0 0 28 20"><defs><linearGradient id="US_svg__e" x1="50%" x2="50%" y1="0%" y2="100%"><stop offset="0%" stop-color="#FFF"/><stop offset="100%" stop-color="#F0F0F0"/></linearGradient><filter id="US_svg__c" width="110.7%" height="130%" x="-5.4%" y="-7.5%" filterUnits="objectBoundingBox"><feOffset dy="1" in="SourceAlpha" result="shadowOffsetOuter1"/><feColorMatrix in="shadowOffsetOuter1" values="0 0 0 0 0 0 0 0 0 0 0 0 0 0 0 0 0 0 0.06 0"/></filter><rect id="US_svg__a" width="28" height="20" rx="2"/><path id="US_svg__d" d="M2 2.667a.667.667 0 110-1.334.667.667 0 010 1.334zm2.667 0a.667.667 0 110-1.334.667.667 0 010 1.334zm2.666 0a.667.667 0 110-1.334.667.667 0 010 1.334zm2.667 0a.667.667 0 110-1.334.667.667 0 010 1.334zM3.333 4a.667.667 0 110-1.333.667.667 0 010 1.333zM6 4a.667.667 0 110-1.333A.667.667 0 016 4zm2.667 0a.667.667 0 110-1.333.667.667 0 010 1.333zM10 5.333A.667.667 0 1110 4a.667.667 0 010 1.333zm-2.667 0a.667.667 0 110-1.333.667.667 0 010 1.333zm-2.666 0a.667.667 0 110-1.333.667.667 0 010 1.333zM2 5.333A.667.667 0 112 4a.667.667 0 010 1.333zm1.333 1.334a.667.667 0 110-1.334.667.667 0 010 1.334zm2.667 0a.667.667 0 110-1.334.667.667 0 010 1.334zm2.667 0a.667.667 0 110-1.334.667.667 0 010 1.334zM10 8a.667.667 0 110-1.333A.667.667 0 0110 8zM7.333 8a.667.667 0 110-1.333.667.667 0 010 1.333zM4.667 8a.667.667 0 110-1.333.667.667 0 010 1.333zM2 8a.667.667 0 110-1.333A.667.667 0 012 8z"/></defs><g fill="none" fill-rule="evenodd"><mask id="US_svg__b" fill="#fff"><use xlink:href="#US_svg__a"/></mask><use fill="#FFF" xlink:href="#US_svg__a"/><path fill="#D02F44" d="M0 0h28v1.333H0V0zm0 2.667h28V4H0V2.667zm0 2.666h28v1.334H0V5.333zM0 8h28v1.333H0V8zm0 2.667h28V12H0v-1.333zm0 2.666h28v1.334H0v-1.334zM0 16h28v1.333H0V16zm0 2.667h28V20H0v-1.333z" mask="url(#US_svg__b)"/><path fill="#46467F" d="M0 0h12v9.333H0z" mask="url(#US_svg__b)"/><g mask="url(#US_svg__b)"><use fill="#000" filter="url(#US_svg__c)" xlink:href="#US_svg__d"/><use fill="url(#US_svg__e)" xlink:href="#US_svg__d"/></g></g></svg>